<?xml version="1.0" standalone="no"?>
<!DOCTYPE svg PUBLIC "-//W3C//DTD SVG 20010904//EN"
 "http://www.w3.org/TR/2001/REC-SVG-20010904/DTD/svg10.dtd">
<svg version="1.0" xmlns="http://www.w3.org/2000/svg"
 width="1280.000000pt" height="1280.000000pt" viewBox="0 0 1280.000000 1280.000000"
 preserveAspectRatio="xMidYMid meet">
<metadata>
Created by potrace 1.14, written by Peter Selinger 2001-2017
</metadata>
<g transform="translate(0.000000,1280.000000) scale(0.100000,-0.100000)"
fill="#000000" stroke="none">
<path d="M107 10570 c-54 -4 -100 -10 -103 -12 -2 -3 -3 -163 -2 -356 l3 -351
75 33 c129 57 312 123 456 164 142 41 374 96 379 90 2 -2 -49 -32 -113 -67
-240 -131 -457 -279 -676 -460 l-126 -104 0 -265 0 -265 137 134 c498 486
1080 810 1753 978 85 21 173 41 195 45 47 7 56 14 -125 -87 -890 -494 -1581
-1322 -1914 -2296 l-46 -133 0 -1218 0 -1218 46 -133 c241 -707 666 -1332
1248 -1833 192 -166 494 -372 723 -493 57 -30 103 -57 101 -59 -2 -1 -54 8
-115 21 -539 114 -1053 351 -1508 694 -133 101 -236 190 -377 330 l-118 116 0
-265 1 -265 80 -69 c204 -175 505 -381 736 -503 57 -30 103 -57 101 -59 -5 -4
-213 41 -322 71 -131 35 -370 118 -480 167 -50 22 -97 42 -103 45 -10 4 -13
-70 -13 -350 l0 -355 68 -8 c127 -16 585 -9 765 10 163 17 175 17 330 0 224
-25 639 -25 870 0 163 17 174 17 330 0 224 -25 639 -25 870 0 163 17 174 17
330 0 224 -25 639 -25 870 0 163 17 175 17 330 0 226 -25 630 -25 867 0 166
17 185 17 323 2 862 -94 1749 90 2512 522 140 79 416 267 555 378 173 138 496
461 634 634 111 139 299 415 378 555 682 1205 726 2667 120 3900 -223 452
-477 802 -838 1155 -88 85 -202 190 -254 233 -613 501 -1340 820 -2090 917
-347 45 -705 50 -1020 15 -137 -16 -154 -16 -305 1 -223 26 -669 26 -887 1
-152 -18 -164 -18 -315 0 -220 25 -666 25 -885 0 -152 -18 -164 -18 -315 0
-116 13 -233 18 -443 18 -210 0 -327 -5 -442 -18 -152 -18 -164 -18 -315 0
-219 25 -665 25 -888 -1 -151 -16 -168 -17 -300 -1 -161 18 -601 28 -748 15z
m6732 -394 c768 -101 1435 -390 2016 -875 116 -96 350 -330 446 -446 445 -533
731 -1149 844 -1817 42 -252 50 -350 49 -648 0 -315 -16 -477 -74 -762 -291
-1421 -1381 -2556 -2799 -2914 -267 -67 -523 -102 -821 -111 -1066 -32 -2109
397 -2849 1173 -579 606 -933 1371 -1033 2229 -17 145 -17 656 0 795 58 470
176 879 370 1276 543 1108 1609 1893 2828 2079 93 14 214 29 269 34 151 14
608 6 754 -13z m-3534 -48 c-11 -6 -76 -42 -145 -81 -821 -455 -1479 -1202
-1835 -2082 -410 -1015 -404 -2163 16 -3170 369 -881 1051 -1636 1876 -2072
57 -30 103 -57 101 -59 -2 -1 -54 8 -115 21 -925 196 -1763 749 -2309 1525
-372 528 -599 1130 -676 1795 -17 145 -17 656 0 795 44 362 122 676 243 985
334 852 961 1554 1771 1979 297 156 607 270 958 350 119 28 145 31 115 14z
m1200 0 c-11 -6 -76 -42 -145 -81 -821 -455 -1479 -1202 -1835 -2082 -410
-1015 -404 -2163 16 -3170 369 -881 1051 -1636 1876 -2072 57 -30 103 -57 101
-59 -2 -1 -54 8 -115 21 -925 196 -1763 749 -2309 1525 -372 528 -599 1130
-676 1795 -17 145 -17 656 0 795 44 362 122 676 243 985 334 852 961 1554
1771 1979 297 156 607 270 958 350 119 28 145 31 115 14z"/>
</g>
</svg>
